<svg width="90" height="90" viewBox="0 0 90 90" fill="none" xmlns="http://www.w3.org/2000/svg">
<path d="M90 75C90 83.25 83.25 90 75 90H15C6.75 90 0 83.25 0 75V15C0 6.75 6.75 0 15 0H75C83.25 0 90 6.75 90 15V75Z" fill="#563D7C"/>
<path d="M24.4559 19.5588H49.9706C54.6765 19.5588 58.4559 20.6324 61.2941 22.7941C64.1324 24.9559 65.5588 28.2059 65.5588 32.5735C65.5588 35.2206 64.9118 37.4853 63.6177 39.3677C62.3235 41.25 60.4706 42.7206 58.0588 43.75V43.8971C61.2941 44.5883 63.75 46.1177 65.4118 48.4853C67.0735 50.8677 67.9118 53.8383 67.9118 57.4265C67.9118 59.4853 67.5441 61.4118 66.8088 63.1912C66.0735 64.9853 64.9265 66.5294 63.353 67.8235C61.7794 69.1177 59.7794 70.1471 57.3235 70.9118C54.8677 71.6765 51.9559 72.0588 48.5735 72.0588H24.4559V19.5588ZM33.6471 41.5441H48.6471C50.853 41.5441 52.6912 40.9265 54.1618 39.6618C55.6324 38.3971 56.3677 36.603 56.3677 34.25C56.3677 31.603 55.7059 29.7353 54.3824 28.6618C53.0588 27.5882 51.1471 27.0441 48.6471 27.0441H33.6471V41.5441ZM33.6471 64.5588H49.8971C52.6912 64.5588 54.8677 63.8383 56.3971 62.3824C57.9412 60.9412 58.7206 58.8824 58.7206 56.2353C58.7206 53.6324 57.9559 51.6471 56.3971 50.2353C54.8383 48.8235 52.6912 48.1471 49.8971 48.1471H33.6471V64.5588Z" fill="white"/>
</svg>
