<svg width="77" height="109" viewBox="0 0 77 109" fill="none" xmlns="http://www.w3.org/2000/svg">
<g clip-path="url(#clip0)">
<path d="M77 21.421L69.9851 100.233L38.4529 109L7.00747 100.245L0 21.421H77Z" fill="#264DE4"/>
<path d="M63.9796 95.2145L69.9743 27.8661H38.5V102.299L63.9796 95.2145Z" fill="#2965F1"/>
<path d="M16.0645 57.1009L16.9284 66.7682H38.5V57.1009H16.0645Z" fill="#EBEBEB"/>
<path d="M38.5 37.5337H38.4667H14.3285L15.2047 47.2013H38.5V37.5337Z" fill="#EBEBEB"/>
<path d="M38.5 92.2666V82.2084L38.4577 82.2197L27.7221 79.3124L27.0358 71.6022H21.8191H17.3591L18.7096 86.7815L38.4556 92.279L38.5 92.2666Z" fill="#EBEBEB"/>
<path d="M18.1214 0H29.7967V4.89648H23.0038V9.79297H29.7967V14.6895H18.1214V0Z" fill="black"/>
<path d="M32.1317 0H43.8069V4.25781H37.0141V5.10938H43.8069V14.9023H32.1317V10.4316H38.9246V9.58008H32.1317V0Z" fill="black"/>
<path d="M46.142 0H57.8172V4.25781H51.0243V5.10938H57.8172V14.9023H46.142V10.4316H52.9348V9.58008H46.142V0Z" fill="black"/>
<path d="M50.3368 66.7683L49.2179 79.3062L38.4667 82.2165V92.2743L58.2284 86.7815L58.3734 85.1482L60.6386 59.6969L60.8738 57.1009L62.614 37.5337H38.4667V47.2013H52.0498L51.1727 57.1009H38.4667V66.7683H50.3368Z" fill="white"/>
</g>
<defs>
<clipPath id="clip0">
<rect width="77" height="109" fill="white"/>
</clipPath>
</defs>
</svg>
