<svg width="31" height="31" viewBox="0 0 31 31" fill="none" xmlns="http://www.w3.org/2000/svg">
<path d="M28.364 30.3967C29.279 30.3967 30.0209 29.6492 30.0209 28.7272V1.81695C30.0209 0.894827 29.279 0.147461 28.364 0.147461H1.6569C0.74161 0.147461 0 0.894827 0 1.81695V28.7272C0 29.6492 0.74161 30.3967 1.6569 30.3967H28.364Z" fill="#395185"/>
<path d="M20.7139 30.3966V18.6825H24.6162L25.2005 14.1174H20.7139V11.2026C20.7139 9.88086 21.0782 8.98013 22.9593 8.98013L25.3585 8.97906V4.89602C24.9434 4.84037 23.5193 4.71606 21.8625 4.71606C18.4033 4.71606 16.0352 6.84355 16.0352 10.7506V14.1174H12.1228V18.6825H16.0352V30.3966H20.7139Z" fill="white"/>
</svg>
