<svg width="108" height="108" viewBox="0 0 108 108" fill="none" xmlns="http://www.w3.org/2000/svg">
<path d="M16.5113 22.7813L23.3348 98.6504L53.9536 106.82L84.6577 98.8048L91.4887 22.7813H16.5113ZM77.2959 40.0537L76.8682 44.9761L76.68 47.25H40.7624L41.6205 57.375H75.8261L75.5975 59.2574L73.3911 83.6494L73.2291 85.0753L54 90.2509V90.2467L53.9772 90.2568L34.7591 85.2652L33.4547 70.875H42.8777L43.5451 78.0131L53.9949 80.6617L54 80.4642V80.4744L64.4726 78.2393L65.5661 66.6563H33.0353L30.7285 40.6384L30.5033 37.9688H77.5204L77.2959 40.0537ZM23.5879 1.3728H28.3314V6.06068H32.6717V1.3728H37.4161V15.5664H32.6717V10.8135H28.3323V15.5664H23.5879V1.3728ZM43.6539 6.08008H39.4774V1.3728H52.5766V6.08008H48.3983V15.5664H43.6539V6.08008ZM54.6556 1.3728H59.6017L62.6451 6.36021L65.6851 1.3728H70.6337V15.5664H65.9078V8.53118L62.6451 13.5776H62.5624L59.2971 8.53118V15.5664H54.6548V1.3728H54.6556ZM72.9953 1.3728H77.7406V10.8751H84.4121V15.5672H72.9953V1.3728Z" fill="#E44D26"/>
</svg>
