<svg width="31" height="31" viewBox="0 0 31 31" fill="none" xmlns="http://www.w3.org/2000/svg">
<path d="M15.4323 2.87266C19.5529 2.87266 20.041 2.88803 21.6682 2.9608C23.1729 3.0281 23.99 3.27449 24.5339 3.48156C25.2541 3.75593 25.7683 4.08373 26.3083 4.61295C26.8483 5.14218 27.1828 5.64607 27.4626 6.35199C27.674 6.88499 27.9254 7.68583 27.9941 9.1604C28.0683 10.7553 28.084 11.2336 28.084 15.272C28.084 19.3105 28.0683 19.7888 27.9941 21.3836C27.9254 22.8583 27.674 23.6591 27.4626 24.1921C27.1828 24.898 26.8483 25.4019 26.3083 25.9311C25.7683 26.4604 25.2541 26.7882 24.5339 27.0625C23.99 27.2696 23.1729 27.516 21.6682 27.5833C20.0412 27.6561 19.5532 27.6714 15.4323 27.6714C11.3114 27.6714 10.8234 27.6561 9.19634 27.5833C7.6917 27.516 6.87457 27.2696 6.33078 27.0625C5.61044 26.7882 5.0963 26.4604 4.5563 25.9311C4.0163 25.4019 3.68183 24.898 3.40194 24.1921C3.1906 23.6591 2.93919 22.8583 2.87052 21.3837C2.79628 19.7888 2.78059 19.3105 2.78059 15.272C2.78059 11.2336 2.79628 10.7553 2.87052 9.16046C2.93919 7.68583 3.1906 6.88499 3.40194 6.35199C3.68183 5.64607 4.0163 5.14218 4.5563 4.61295C5.0963 4.08373 5.61044 3.75593 6.33078 3.48156C6.87457 3.27449 7.6917 3.0281 9.19628 2.9608C10.8236 2.88803 11.3117 2.87266 15.4323 2.87266ZM15.4323 0.147461C11.2411 0.147461 10.7156 0.164872 9.0696 0.238477C7.42694 0.311962 6.30517 0.5676 5.3235 0.941511C4.30869 1.32803 3.44807 1.84519 2.59014 2.68601C1.73221 3.52682 1.20453 4.37028 0.810146 5.36486C0.428627 6.32695 0.167788 7.42635 0.0928069 9.03624C0.0177038 10.6494 0 11.1644 0 15.272C0 19.3797 0.0177038 19.8947 0.0928069 21.5079C0.167788 23.1177 0.428627 24.2171 0.810146 25.1792C1.20453 26.1737 1.73221 27.0173 2.59014 27.8581C3.44807 28.6989 4.30869 29.2161 5.3235 29.6026C6.30517 29.9765 7.42694 30.2321 9.0696 30.3056C10.7156 30.3792 11.2411 30.3966 15.4323 30.3966C19.6235 30.3966 20.149 30.3792 21.795 30.3056C23.4376 30.2321 24.5594 29.9765 25.5411 29.6026C26.5559 29.2161 27.4165 28.6989 28.2744 27.8581C29.1324 27.0173 29.6601 26.1738 30.0544 25.1792C30.436 24.2171 30.6968 23.1177 30.7718 21.5079C30.8469 19.8947 30.8646 19.3797 30.8646 15.272C30.8646 11.1644 30.8469 10.6494 30.7718 9.03624C30.6968 7.42635 30.436 6.32695 30.0544 5.36486C29.6601 4.37028 29.1324 3.52682 28.2744 2.68601C27.4165 1.84519 26.5559 1.32803 25.5411 0.941511C24.5594 0.5676 23.4376 0.311962 21.795 0.238477C20.149 0.164872 19.6235 0.147461 15.4323 0.147461ZM15.4323 7.50536C11.0556 7.50536 7.50756 10.9826 7.50756 15.272C7.50756 19.5615 11.0556 23.0387 15.4323 23.0387C19.809 23.0387 23.357 19.5615 23.357 15.272C23.357 10.9826 19.809 7.50536 15.4323 7.50536ZM15.4323 20.3136C12.5913 20.3136 10.2882 18.0564 10.2882 15.272C10.2882 12.4877 12.5913 10.2305 15.4323 10.2305C18.2733 10.2305 20.5764 12.4877 20.5764 15.272C20.5764 18.0564 18.2733 20.3136 15.4323 20.3136ZM25.522 7.19851C25.522 8.20089 24.6929 9.01349 23.6701 9.01349C22.6473 9.01349 21.8182 8.20089 21.8182 7.19851C21.8182 6.19613 22.6473 5.38359 23.6701 5.38359C24.6929 5.38359 25.522 6.19613 25.522 7.19851Z" fill="#EF426F"/>
</svg>
