<svg width="90" height="88" viewBox="0 0 90 88" fill="none" xmlns="http://www.w3.org/2000/svg">
<path d="M15.9375 0H74.0625C82.875 0 90 7.1453 90 15.9829V72.0171C90 80.8547 82.875 88 74.0625 88H15.9375C7.125 88 0 80.8547 0 72.0171V15.9829C0 7.1453 7.125 0 15.9375 0Z" fill="#001E36"/>
<path d="M20.25 61.7128V23.0154C20.25 22.7521 20.3625 22.6017 20.625 22.6017C21.2625 22.6017 21.8625 22.6017 22.725 22.5641C23.625 22.5265 24.5625 22.5265 25.575 22.4889C26.5875 22.4513 27.675 22.4513 28.8375 22.4136C30 22.376 31.125 22.376 32.25 22.376C35.325 22.376 37.875 22.7521 39.975 23.5418C41.85 24.1812 43.575 25.2342 45 26.6256C46.2 27.829 47.1375 29.2957 47.7375 30.9128C48.3 32.4923 48.6 34.1094 48.6 35.8017C48.6 39.0359 47.85 41.706 46.35 43.8119C44.85 45.9179 42.75 47.4974 40.3125 48.4C37.7625 49.3401 34.95 49.6786 31.875 49.6786C30.975 49.6786 30.375 49.6786 30 49.641C29.625 49.6034 29.1 49.6034 28.3875 49.6034V61.6752C28.425 61.9384 28.2375 62.1641 27.975 62.2017C27.9375 62.2017 27.9 62.2017 27.825 62.2017H20.7C20.4 62.2017 20.25 62.0513 20.25 61.7128ZM28.425 29.8598V42.4957C28.95 42.5333 29.4375 42.5709 29.8875 42.5709H31.875C33.3375 42.5709 34.8 42.3453 36.1875 41.894C37.3875 41.5555 38.4375 40.841 39.2625 39.9008C40.05 38.9607 40.425 37.682 40.425 36.0273C40.4625 34.8615 40.1625 33.6957 39.5625 32.6803C38.925 31.7025 38.025 30.9504 36.9375 30.5367C35.55 29.9726 34.05 29.747 32.5125 29.7846C31.5375 29.7846 30.675 29.7846 29.9625 29.8222C29.2125 29.7846 28.6875 29.8222 28.425 29.8598Z" fill="#31A8FF"/>
<path d="M72 40.2017C70.875 39.5999 69.675 39.1863 68.4 38.923C67.0125 38.6222 65.625 38.4341 64.2 38.4341C63.45 38.3965 62.6625 38.5094 61.95 38.6974C61.4625 38.8102 61.05 39.0735 60.7875 39.4495C60.6 39.7504 60.4875 40.1264 60.4875 40.4649C60.4875 40.8034 60.6375 41.1418 60.8625 41.4427C61.2 41.8564 61.65 42.1948 62.1375 42.4581C63 42.9094 63.9 43.323 64.8 43.6991C66.825 44.376 68.775 45.3162 70.575 46.4444C71.8125 47.2341 72.825 48.2871 73.5375 49.5658C74.1375 50.7692 74.4375 52.0854 74.4 53.4393C74.4375 55.2068 73.9125 56.9743 72.9375 58.441C71.8875 59.9452 70.425 61.1111 68.7375 61.788C66.9 62.5777 64.65 62.9914 61.95 62.9914C60.225 62.9914 58.5375 62.841 56.85 62.5025C55.5375 62.2769 54.225 61.8632 53.025 61.2991C52.7625 61.1487 52.575 60.8854 52.6125 60.5846V54.041C52.6125 53.9282 52.65 53.7777 52.7625 53.7025C52.875 53.6273 52.9875 53.6649 53.1 53.7401C54.5625 54.6051 56.1 55.2068 57.75 55.5829C59.175 55.9589 60.675 56.147 62.175 56.147C63.6 56.147 64.6125 55.9589 65.2875 55.6205C65.8875 55.3572 66.3 54.7179 66.3 54.041C66.3 53.5145 66 53.0256 65.4 52.5367C64.8 52.0478 63.5625 51.4837 61.725 50.7692C59.8125 50.0923 58.05 49.1897 56.4 48.0615C55.2375 47.2341 54.2625 46.1435 53.55 44.8649C52.95 43.6615 52.65 42.3452 52.6875 41.029C52.6875 39.4119 53.1375 37.87 53.9625 36.4786C54.9 34.9743 56.2875 33.7709 57.9 33.0188C59.6625 32.1162 61.875 31.7025 64.5375 31.7025C66.075 31.7025 67.65 31.8153 69.1875 32.041C70.3125 32.1914 71.4 32.4923 72.4125 32.9059C72.5625 32.9435 72.7125 33.094 72.7875 33.2444C72.825 33.3948 72.8625 33.5452 72.8625 33.6957V39.8256C72.8625 39.976 72.7875 40.1264 72.675 40.2017C72.3375 40.2769 72.15 40.2769 72 40.2017Z" fill="#31A8FF"/>
</svg>
