<svg width="31" height="25" viewBox="0 0 31 25" fill="none" xmlns="http://www.w3.org/2000/svg">
<path d="M30.4469 3.17959C29.3267 3.67318 28.1228 4.00677 26.8592 4.15681C28.1489 3.38871 29.1393 2.17251 29.6057 0.723395C28.3988 1.43451 27.062 1.951 25.6391 2.22938C24.4996 1.02324 22.8762 0.269531 21.0796 0.269531C17.6298 0.269531 14.8329 3.04815 14.8329 6.47536C14.8329 6.96175 14.8882 7.43542 14.9947 7.88962C9.80317 7.63082 5.20044 5.16013 2.11956 1.40552C1.58187 2.3221 1.27383 3.38816 1.27383 4.52547C1.27383 6.6785 2.3767 8.57805 4.05279 9.69091C3.02876 9.65871 2.06565 9.37956 1.22338 8.91474C1.22293 8.94063 1.22293 8.96663 1.22293 8.99275C1.22293 11.9996 3.37612 14.5079 6.23371 15.078C5.7095 15.2198 5.15768 15.2956 4.58792 15.2956C4.18543 15.2956 3.79409 15.2568 3.41276 15.1843C4.2076 17.6499 6.51447 19.4441 9.24789 19.4942C7.11007 21.1587 4.41663 22.1508 1.4901 22.1508C0.985941 22.1508 0.488683 22.1215 0 22.0642C2.76438 23.825 6.04784 24.8523 9.57542 24.8523C21.065 24.8523 27.348 15.3959 27.348 7.19499C27.348 6.92591 27.342 6.65826 27.3299 6.39216C28.5503 5.51718 29.6094 4.42412 30.4469 3.17959Z" fill="#55ACEE"/>
</svg>
