<svg width="2000" height="150" viewBox="0 0 2000 150" fill="none" xmlns="http://www.w3.org/2000/svg">
<path fill-rule="evenodd" clip-rule="evenodd" d="M0 56.4014L41.6667 65.5124C83.3333 75.0572 166.667 93.713 250 106.295C333.333 118.877 416.667 124.951 500 121.914C583.333 118.877 666.667 106.295 750 93.713C833.333 81.1312 916.667 68.5494 1000 65.5124C1083.33 62.4754 1166.67 68.5494 1250 87.639C1333.33 106.295 1416.67 137.533 1500 146.644C1583.33 156.188 1666.67 143.607 1750 131.025C1833.33 118.877 1916.67 106.295 1958.33 99.787L2000 93.713V0H1958.33C1916.67 0 1833.33 0 1750 0C1666.67 0 1583.33 0 1500 0C1416.67 0 1333.33 0 1250 0C1166.67 0 1083.33 0 1000 0C916.667 0 833.333 0 750 0C666.667 0 583.333 0 500 0C416.667 0 333.333 0 250 0C166.667 0 83.3333 0 41.6667 0H0V56.4014Z" fill="#D1D2D6"/>
</svg>
