<svg width="2000" height="150" viewBox="0 0 2000 150" fill="none" xmlns="http://www.w3.org/2000/svg">
<path fill-rule="evenodd" clip-rule="evenodd" d="M0 6.18267L41.6667 3.27307C83.3333 0.36347 166.667 -5.45573 250 12.4175C333.333 30.2908 416.667 72.2721 500 93.055C583.333 114.253 666.667 114.253 750 105.109C833.333 95.9646 916.667 78.0913 1000 63.1277C1083.33 48.164 1166.67 36.11 1250 39.4352C1333.33 42.3448 1416.67 60.2181 1500 72.2721C1583.33 84.3262 1666.67 90.1454 1750 87.2358C1833.33 84.3262 1916.67 72.2721 1958.33 66.0373L2000 60.2181V150H1958.33C1916.67 150 1833.33 150 1750 150C1666.67 150 1583.33 150 1500 150C1416.67 150 1333.33 150 1250 150C1166.67 150 1083.33 150 1000 150C916.667 150 833.333 150 750 150C666.667 150 583.333 150 500 150C416.667 150 333.333 150 250 150C166.667 150 83.3333 150 41.6667 150H0V6.18267Z" fill="#D1D2D6"/>
</svg>
